# xmcd
#
# Track frame offsets:
#	150
#	12441
#	22117
#	35231
#	50391
#	65730
#	78879
#	94813
#	106759
#	126637
#	142078
#	158501
#	169706
#	188771
#	204773
#
# Disc length: 2957 seconds
#
# Revision: 0
# Processed by: cddbd v1.5.2PL0 Copyright (c) Steve Scherf et al.
# Submitted via: audiograbber 1.83.01
#
DISCID=cb0b8b0f
DTITLE=Larry Benade Blues Condition (Moon Over Main Street) - Moon Over Main St
DTITLE=reet
DYEAR=2014
DGENRE=Blues
TTITLE0=Done Somebody Wrong
TTITLE1=Don't She Look Good
TTITLE2=It Hurts Me Too
TTITLE3=Lucky Star
TTITLE4=If I Had Possession Over Judgment Day
TTITLE5=Howlin' For My Baby
TTITLE6=Dimples
TTITLE7=Oh What A Thrill
TTITLE8=Five Long Years
TTITLE9=One More Chance
TTITLE10=Any Ordinary Man
TTITLE11=Made Up My Mind
TTITLE12=How Do I Know
TTITLE13=Harlem Shuffle
TTITLE14=Meet Me With Your Black Drawers On
EXTD=
EXTT0=
EXTT1=
EXTT2=
EXTT3=
EXTT4=
EXTT5=
EXTT6=
EXTT7=
EXTT8=
EXTT9=
EXTT10=
EXTT11=
EXTT12=
EXTT13=
EXTT14=
PLAYORDER=
